<svg xmlns="http://www.w3.org/2000/svg" width="960" height="560" viewBox="0 0 960 560" role="img" aria-labelledby="title"><title id="title">Shared feature state across native and PrimeNG table renderers</title><rect width="960" height="560" fill="#edf1e8"/><defs><pattern id="dots" width="26" height="26" patternUnits="userSpaceOnUse"><circle cx="1" cy="1" r="1" fill="#cbd5c4"/></pattern></defs><rect width="960" height="560" fill="url(#dots)"/><g transform="translate(75,180)"><rect width="290" height="270" rx="12" fill="#fff" stroke="#c8d5c3"/><rect width="290" height="52" rx="12" fill="#e2eadb"/><rect y="40" width="290" height="12" fill="#e2eadb"/><circle cx="26" cy="27" r="4" fill="#69846a"/><text x="43" y="32" fill="#34583e" font-family="Arial,sans-serif" font-size="15">Native table</text><rect x="34" y="76" width="221" height="23" rx="4" fill="#f1f4ed"/><rect x="58" y="112" width="15" height="15" rx="3" fill="#cdd8c8"/><path d="M88 119h78M202 119h29" stroke="#c0cebb" stroke-width="5" stroke-linecap="round"/><rect x="58" y="143" width="15" height="15" rx="3" fill="#b85d3e"/><path d="M88 150h87M202 150h29" stroke="#749078" stroke-width="5" stroke-linecap="round"/><rect x="58" y="174" width="15" height="15" rx="3" fill="#cdd8c8"/><path d="M88 181h96M202 181h29" stroke="#c0cebb" stroke-width="5" stroke-linecap="round"/><rect x="58" y="205" width="15" height="15" rx="3" fill="#cdd8c8"/><path d="M88 212h105M202 212h29" stroke="#c0cebb" stroke-width="5" stroke-linecap="round"/><path d="M34 247h222" stroke="#e3eadd"/></g><g transform="translate(595,180)"><rect width="290" height="270" rx="12" fill="#fff" stroke="#c8d5c3"/><rect width="290" height="52" rx="12" fill="#20493e"/><rect y="40" width="290" height="12" fill="#20493e"/><circle cx="26" cy="27" r="4" fill="#b6cdb5"/><text x="43" y="32" fill="#f7f9f2" font-family="Arial,sans-serif" font-size="15">PrimeNG table</text><rect x="34" y="76" width="221" height="23" rx="4" fill="#f1f4ed"/><rect x="58" y="112" width="15" height="15" rx="3" fill="#cdd8c8"/><path d="M88 119h78M202 119h29" stroke="#c0cebb" stroke-width="5" stroke-linecap="round"/><rect x="58" y="143" width="15" height="15" rx="3" fill="#b85d3e"/><path d="M88 150h87M202 150h29" stroke="#749078" stroke-width="5" stroke-linecap="round"/><rect x="58" y="174" width="15" height="15" rx="3" fill="#cdd8c8"/><path d="M88 181h96M202 181h29" stroke="#c0cebb" stroke-width="5" stroke-linecap="round"/><rect x="58" y="205" width="15" height="15" rx="3" fill="#cdd8c8"/><path d="M88 212h105M202 212h29" stroke="#c0cebb" stroke-width="5" stroke-linecap="round"/><path d="M34 247h222" stroke="#e3eadd"/></g><path d="M365 314h230" stroke="#8fa489" stroke-width="1.5" stroke-dasharray="5 6"/><path d="m578 306 10 8-10 8" fill="none" stroke="#6e886a" stroke-width="1.5"/><rect x="351" y="84" width="258" height="56" rx="28" fill="#173d35"/><text x="480" y="118" text-anchor="middle" fill="#f4f7ee" font-family="Arial,sans-serif" font-size="15">One shared feature state</text><path d="M480 140v38M480 178H220v-1M480 178h260v-1" stroke="#90a689" stroke-width="1.3" fill="none"/><circle cx="480" cy="314" r="29" fill="#edf2e8" stroke="#a7b89d"/><path d="m468 314 8 8 15-17" fill="none" stroke="#497152" stroke-width="2" stroke-linecap="round" stroke-linejoin="round"/><text x="480" y="506" text-anchor="middle" font-family="Arial,sans-serif" font-size="13" letter-spacing="2" fill="#5d765d">FILTERS / SELECTION / DRAFTS — PRESERVED</text></svg>
